<?xml version="1.0" encoding="UTF-8" standalone="no"?>
<svg
   xmlns:osb="http://www.openswatchbook.org/uri/2009/osb"
   xmlns:dc="http://purl.org/dc/elements/1.1/"
   xmlns:cc="http://creativecommons.org/ns#"
   xmlns:rdf="http://www.w3.org/1999/02/22-rdf-syntax-ns#"
   xmlns:svg="http://www.w3.org/2000/svg"
   xmlns="http://www.w3.org/2000/svg"
   xmlns:sodipodi="http://sodipodi.sourceforge.net/DTD/sodipodi-0.dtd"
   xmlns:inkscape="http://www.inkscape.org/namespaces/inkscape"
   width="512"
   height="512"
   version="1.1"
   id="svg12"
   sodipodi:docname="YanhuaNC-F.svg"
   inkscape:version="0.92.4 (5da689c313, 2019-01-14)">
  <metadata
     id="metadata18">
    <rdf:RDF>
      <cc:Work
         rdf:about="">
        <dc:format>image/svg+xml</dc:format>
        <dc:type
           rdf:resource="http://purl.org/dc/dcmitype/StillImage" />
        <dc:title />
      </cc:Work>
    </rdf:RDF>
  </metadata>
  <defs
     id="defs16">
    <linearGradient
       id="linearGradient2650"
       osb:paint="gradient">
      <stop
         style="stop-color:#222b00;stop-opacity:1;"
         offset="0"
         id="stop2646" />
      <stop
         style="stop-color:#222b00;stop-opacity:0;"
         offset="1"
         id="stop2648" />
    </linearGradient>
    <linearGradient
       id="linearGradient2630"
       osb:paint="solid">
      <stop
         style="stop-color:#222b00;stop-opacity:1;"
         offset="0"
         id="stop2628" />
    </linearGradient>
    <linearGradient
       id="linearGradient2451"
       osb:paint="solid">
      <stop
         style="stop-color:#00ff00;stop-opacity:1;"
         offset="0"
         id="stop2449" />
    </linearGradient>
    <filter
       style="color-interpolation-filters:sRGB;"
       height="1"
       width="1"
       y="0"
       x="0"
       inkscape:label="Color Blindness"
       id="filter2400">
      <feColorMatrix
         values="0.95 0.05 0 0 0 0.2583 0.4333 0.5667 0 0 0 0.475 0.525 0 0 0 0 0 1 0 "
         type="matrix"
         result="fbSourceGraphic"
         id="feColorMatrix2398" />
      <feColorMatrix
         result="fbSourceGraphicAlpha"
         in="fbSourceGraphic"
         values="0 0 0 -1 0 0 0 0 -1 0 0 0 0 -1 0 0 0 0 1 0"
         id="feColorMatrix2406" />
      <feColorMatrix
         id="feColorMatrix2408"
         values="0.95 0.05 0 0 0 0.2583 0.4333 0.5667 0 0 0 0.475 0.525 0 0 0 0 0 1 0 "
         type="matrix"
         result="colormatrix1"
         in="fbSourceGraphic" />
    </filter>
    <filter
       style="color-interpolation-filters:sRGB;"
       height="1"
       width="1"
       y="0"
       x="0"
       inkscape:label="Color Blindness"
       id="filter2404">
      <feColorMatrix
         values="0.95 0.05 0 0 0 0.2583 0.4333 0.5667 0 0 0 0.475 0.525 0 0 0 0 0 1 0 "
         type="matrix"
         result="fbSourceGraphic"
         id="feColorMatrix2402" />
      <feColorMatrix
         result="fbSourceGraphicAlpha"
         in="fbSourceGraphic"
         values="0 0 0 -1 0 0 0 0 -1 0 0 0 0 -1 0 0 0 0 1 0"
         id="feColorMatrix2410" />
      <feColorMatrix
         id="feColorMatrix2412"
         values="0.95 0.05 0 0 0 0.2583 0.4333 0.5667 0 0 0 0.475 0.525 0 0 0 0 0 1 0 "
         type="matrix"
         result="colormatrix1"
         in="fbSourceGraphic" />
    </filter>
  </defs>
  <sodipodi:namedview
     pagecolor="#ffffff"
     bordercolor="#666666"
     borderopacity="1"
     objecttolerance="10"
     gridtolerance="10"
     guidetolerance="10"
     inkscape:pageopacity="0"
     inkscape:pageshadow="2"
     inkscape:window-width="1920"
     inkscape:window-height="1020"
     id="namedview14"
     showgrid="false"
     inkscape:zoom="0.65186406"
     inkscape:cx="308.48794"
     inkscape:cy="223.29207"
     inkscape:window-x="0"
     inkscape:window-y="31"
     inkscape:window-maximized="1"
     inkscape:current-layer="svg12" />
  <path
     style="clip-rule:evenodd;opacity:1;fill:#007300;fill-opacity:1;fill-rule:nonzero;stroke:#8d4d00;stroke-width:1;stroke-miterlimit:4;stroke-dasharray:none;stroke-opacity:1;filter:url(#filter2404)"
     d="m 25.70101,8e-6 h 460.89706 c 13.911,0 25.402,11.492 25.402,25.70701 V 486.599 c 0,13.91 -11.491,25.401 -25.401,25.401 H 25.701 C 11.492,512 0,500.509 0,486.599 V 25.707018 C 0,11.492008 11.492,8e-6 25.70101,8e-6 Z"
     id="path830"
     inkscape:connector-curvature="0"
     inkscape:export-xdpi="48"
     inkscape:export-ydpi="48" />
  <g
     transform="translate(-880.30188,385.23264)"
     id="g836"
     style="font-style:normal;font-variant:normal;font-weight:normal;font-stretch:normal;font-size:279.89334106px;line-height:1.25;font-family:cmsy10;-inkscape-font-specification:'cmsy10, Normal';font-variant-ligatures:normal;font-variant-caps:normal;font-variant-numeric:normal;font-feature-settings:normal;text-align:start;letter-spacing:0px;word-spacing:0px;writing-mode:lr-tb;text-anchor:start;opacity:1;fill:#ffffff;fill-opacity:1;stroke:none;stroke-width:1;stroke-miterlimit:4;stroke-dasharray:none;stroke-opacity:1;filter:url(#filter2400)"
     aria-label="Y"
     inkscape:export-xdpi="48"
     inkscape:export-ydpi="48">
    <path
       id="path834"
       style="font-style:normal;font-variant:normal;font-weight:normal;font-stretch:normal;font-size:279.89334106px;font-family:cmsy10;-inkscape-font-specification:'cmsy10, Normal';font-variant-ligatures:normal;font-variant-caps:normal;font-variant-numeric:normal;font-feature-settings:normal;text-align:start;writing-mode:lr-tb;text-anchor:start;opacity:1;fill:#ffffff;fill-opacity:1;stroke:none;stroke-width:1;stroke-miterlimit:4;stroke-dasharray:none;stroke-opacity:1"
       d="m 1038.4343,-48.139296 v -1.64 q 1.0933,-6.15 3.4167,-11.34333 2.46,-5.19334 6.4233,-5.19334 0.9567,0 1.64,1.23 0.6833,1.09334 0.6833,2.18667 1.7767,10.93333 10.25,17.35667 8.4734,6.42333 19.9534,6.42333 12.3,0 41.6833,-24.73667 1.0933,-9.70333 1.5033,-18.86 0.41,-9.15667 0.41,-23.096674 0,-18.04 -1.7766,-38.40333 -1.7767,-20.5 -7.2434,-40.31667 -5.4666,-19.81667 -16.9466,-33.21 -11.3434,-13.39333 -29.3834,-13.39333 -1.0933,0.82 -2.87,2.73333 -1.7766,1.91333 -4.51,3.69 -3.4166,2.05 -9.1566,3.00667 h -1.9134 q -2.3233,-0.82 -2.3233,-2.46 0,-3.41667 3.9633,-7.24334 3.9634,-3.82666 10.3867,-7.24333 6.56,-3.55333 11.89,-5.46667 5.4667,-1.91333 9.2933,-1.91333 h 2.05 q 19.68,0 32.1167,13.94 12.4367,13.80333 18.1767,33.89333 5.8766,19.95334 7.79,41.41001 2.05,21.45666 2.05,41.27333 0,3.41667 -0.2734,9.70333 -0.1366,6.150004 -0.41,12.300004 -0.1366,6.01334 -0.1366,9.56667 26.3766,-26.376674 45.1,-53.983334 9.2933,-14.21334 18.45,-33.07334 9.1566,-18.99666 9.1566,-29.93 0,-6.42333 -3.28,-11.48 -3.1433,-5.19333 -8.61,-8.06333 -5.33,-2.87 -11.89,-2.87 -1.7766,-1.50334 -2.1866,-4.78334 v -1.36666 q 0.9566,-5.74 3.5533,-11.07 2.5967,-5.46667 6.8333,-5.46667 8.61,0 14.8967,4.64667 6.4233,4.51 9.7033,11.89 3.28,7.38 3.28,15.99 v 1.64 q 0,13.66666 -7.5166,33.21 -7.5167,19.40667 -17.0834,35.94333 -8.8833,15.44334 -18.7233,29.11 -9.7033,13.666674 -21.32,26.923344 -12.71,13.94 -28.8367,29.38333 -15.99,15.30667 -34.03,28.01667 -17.9033,12.84667 -28.8366,12.84667 -14.6234,0 -24.19,-8.74667 -9.5667,-8.74667 -11.2067,-22.96 z m 28.1616,-231.549344 h 139.719 70.459 9.983 v 9.983 70.764 139.724 c 0,22.074 -9.074,42.339 -23.583,56.859 -14.51,14.509 -34.785,23.582 -56.859,23.582 h -139.719 -70.759 -9.983 v -9.982 -70.459 -139.723 c 0,-22.074 9.074,-42.34 23.893,-56.854 14.52,-14.82 34.775,-23.894 56.849,-23.894 z m 139.719,9.9825 h -139.7185 c -39.012,0 -70.759,31.752 -70.759,70.764 v 139.724 70.459 h 70.759 139.719 c 38.713,0 70.459,-31.747 70.459,-70.459 v -139.723 -70.764 h -70.459 z m -0.01,-28.42949 h -139.719 c -13.3,0 -26.001,2.723 -37.803,7.56 -12.091,5.14099 -22.983,12.40099 -32.356,21.47499 -9.074,9.373 -16.328,20.26 -21.464,32.356 -4.847,11.796 -7.564,24.497 -7.564,37.803 v 139.724 70.459 9.982 18.447 h 18.446 9.983 70.759 139.719 c 27.221,0 52.022,-11.192 69.859,-29.029 9.074,-9.073 16.328,-19.966 21.475,-32.057 4.837,-11.792 7.565,-24.503 7.565,-37.803 v -139.723 -70.764 -9.983 -18.44699 h -18.457 -9.983 z"
       inkscape:connector-curvature="0" />
  </g>
</svg>
